<svg xmlns="http://www.w3.org/2000/svg" xmlns:xlink="http://www.w3.org/1999/xlink" version="1.1" x="0px" y="0px" viewBox="0 0 750 500" style="enable-background:new 0 0 750 500;" xml:space="preserve">
<g id="BACKGROUND">
	<!-- <rect style="fill:#0b0925;" width="750" height="500"/> -->
</g>
<g id="OBJECTS">
	<g>
		<g>
			<path style="fill:#0b0925;" d="M484.567,390.297V500h-49.41V390.297c0-17.369-14.131-31.495-31.507-31.495     c-17.368,0-31.507,14.126-31.507,31.495V500h-49.41V390.297c0-44.673,36.234-80.885,80.917-80.885     C448.341,309.413,484.567,345.624,484.567,390.297z"/>
			<path style="fill:#ffffff;" d="M468.097,390.297V500h-32.94V390.297c0-17.369-14.131-31.495-31.507-31.495     c-17.368,0-31.507,14.126-31.507,31.495V500h-32.94V390.297c0-35.52,28.913-64.421,64.447-64.421     C439.192,325.876,468.097,354.778,468.097,390.297z"/>
			<path style="fill:#0b0925;" d="M451.627,390.297V500h-16.47V390.297c0-17.369-14.131-31.495-31.507-31.495     c-17.368,0-31.507,14.126-31.507,31.495V500h-16.47V390.297c0-26.448,21.526-47.958,47.977-47.958     C430.109,342.339,451.627,363.849,451.627,390.297z"/>
		</g>
		<polygon style="fill:#1c77de;" points="552.616,49.33 552.616,0 750,0 750,197.305 700.651,197.305 700.651,147.976     651.301,147.976 651.301,98.659 601.965,98.659 601.965,49.33   "/>
		<polygon style="fill:#dfc7d8;" points="197.384,450.67 197.384,500 0,500 0,302.695 49.349,302.695 49.349,352.024     98.699,352.024 98.699,401.341 148.035,401.341 148.035,450.67   "/>
		<g>
			<defs fill="#ffffff">
				<rect id="SVGID_1_" x="560.638" y="75.007" width="166.703" height="166.703" fill="#ffffff"/>
			</defs>
			<clipPath id="SVGID_00000036241391096774140870000000864153978107902336_" fill="#ffffff">
				<use xlink:href="#SVGID_1_" style="overflow:visible;" fill="#ffffff"/>
			</clipPath>
			<g style="clip-path:url(#SVGID_00000036241391096774140870000000864153978107902336_);">
				
					<path style="fill:#ffffff;stroke:#ffffff;stroke-width:3.2067;stroke-linecap:round;stroke-linejoin:round;stroke-miterlimit:10;" d="      M561.366,91.557c7.626,0,7.626,8.551,15.253,8.551c7.628,0,7.628-8.551,15.255-8.551c7.626,0,7.626,8.551,15.253,8.551      c7.627,0,7.627-8.551,15.254-8.551c7.627,0,7.627,8.551,15.255,8.551c7.628,0,7.628-8.551,15.256-8.551      c7.626,0,7.626,8.551,15.252,8.551c7.629,0,7.629-8.551,15.258-8.551c7.626,0,7.626,8.551,15.253,8.551      c7.632,0,7.632-8.551,15.263-8.551c7.632,0,7.632,8.551,15.263,8.551"/>
				
					<path style="fill:#ffffff;stroke:#ffffff;stroke-width:3.2067;stroke-linecap:round;stroke-linejoin:round;stroke-miterlimit:10;" d="      M561.366,116.132c7.626,0,7.626,8.551,15.253,8.551c7.628,0,7.628-8.551,15.255-8.551c7.626,0,7.626,8.551,15.253,8.551      c7.627,0,7.627-8.551,15.254-8.551c7.627,0,7.627,8.551,15.255,8.551c7.628,0,7.628-8.551,15.256-8.551      c7.626,0,7.626,8.551,15.252,8.551c7.629,0,7.629-8.551,15.258-8.551c7.626,0,7.626,8.551,15.253,8.551      c7.632,0,7.632-8.551,15.263-8.551c7.632,0,7.632,8.551,15.263,8.551"/>
				
					<path style="fill:#ffffff;stroke:#ffffff;stroke-width:3.2067;stroke-linecap:round;stroke-linejoin:round;stroke-miterlimit:10;" d="      M561.366,140.708c7.626,0,7.626,8.551,15.253,8.551c7.628,0,7.628-8.551,15.255-8.551c7.626,0,7.626,8.551,15.253,8.551      c7.627,0,7.627-8.551,15.254-8.551c7.627,0,7.627,8.551,15.255,8.551c7.628,0,7.628-8.551,15.256-8.551      c7.626,0,7.626,8.551,15.252,8.551c7.629,0,7.629-8.551,15.258-8.551c7.626,0,7.626,8.551,15.253,8.551      c7.632,0,7.632-8.551,15.263-8.551c7.632,0,7.632,8.551,15.263,8.551"/>
				
					<path style="fill:#ffffff;stroke:#ffffff;stroke-width:3.2067;stroke-linecap:round;stroke-linejoin:round;stroke-miterlimit:10;" d="      M561.366,165.283c7.626,0,7.626,8.551,15.253,8.551c7.628,0,7.628-8.551,15.255-8.551c7.626,0,7.626,8.551,15.253,8.551      c7.627,0,7.627-8.551,15.254-8.551c7.627,0,7.627,8.551,15.255,8.551c7.628,0,7.628-8.551,15.256-8.551      c7.626,0,7.626,8.551,15.252,8.551c7.629,0,7.629-8.551,15.258-8.551c7.626,0,7.626,8.551,15.253,8.551      c7.632,0,7.632-8.551,15.263-8.551c7.632,0,7.632,8.551,15.263,8.551"/>
				
					<path style="fill:#ffffff;stroke:#ffffff;stroke-width:3.2067;stroke-linecap:round;stroke-linejoin:round;stroke-miterlimit:10;" d="      M561.366,189.859c7.626,0,7.626,8.551,15.253,8.551c7.628,0,7.628-8.551,15.255-8.551c7.626,0,7.626,8.551,15.253,8.551      c7.627,0,7.627-8.551,15.254-8.551c7.627,0,7.627,8.551,15.255,8.551c7.628,0,7.628-8.551,15.256-8.551      c7.626,0,7.626,8.551,15.252,8.551c7.629,0,7.629-8.551,15.258-8.551c7.626,0,7.626,8.551,15.253,8.551      c7.632,0,7.632-8.551,15.263-8.551c7.632,0,7.632,8.551,15.263,8.551"/>
				
					<path style="fill:#ffffff;stroke:#ffffff;stroke-width:3.2067;stroke-linecap:round;stroke-linejoin:round;stroke-miterlimit:10;" d="      M561.366,214.434c7.626,0,7.626,8.551,15.253,8.551c7.628,0,7.628-8.551,15.255-8.551c7.626,0,7.626,8.551,15.253,8.551      c7.627,0,7.627-8.551,15.254-8.551c7.627,0,7.627,8.551,15.255,8.551c7.628,0,7.628-8.551,15.256-8.551      c7.626,0,7.626,8.551,15.252,8.551c7.629,0,7.629-8.551,15.258-8.551c7.626,0,7.626,8.551,15.253,8.551      c7.632,0,7.632-8.551,15.263-8.551c7.632,0,7.632,8.551,15.263,8.551"/>
			</g>
		</g>
		<g>
			<g>
				<path style="fill:#2620bf;" d="M0,47.686V169.87h172.285c33.733,0,61.08-27.346,61.08-61.08v-0.024      c0-33.733-27.346-61.08-61.08-61.08H0z"/>
				<path style="fill:#dfc7d8;" d="M0,81.456v54.643h77.049c15.086,0,27.316-12.23,27.316-27.316v-0.011      c0-15.086-12.23-27.316-27.316-27.316H0z"/>
			</g>
		</g>
		<g>
			
				<path style="fill:#ffffff;stroke:#ffffff;stroke-width:6.3454;stroke-linecap:round;stroke-linejoin:round;stroke-miterlimit:10;" d="     M233.365,163.404L233.365,163.404c-30.044,0-54.626-24.582-54.626-54.626v0c0-30.044,24.582-54.626,54.626-54.626h0     c30.044,0,54.626,24.582,54.626,54.626v0C287.991,138.822,263.409,163.404,233.365,163.404z"/>
			
				<path style="fill:#ffffff;stroke:#9f57b3;stroke-width:3.1727;stroke-linecap:round;stroke-linejoin:round;stroke-miterlimit:10;" d="     M233.365,151.849L233.365,151.849c-23.689,0-43.071-19.382-43.071-43.071v0c0-23.689,19.382-43.071,43.071-43.071h0     c23.689,0,43.071,19.382,43.071,43.071v0C276.436,132.467,257.054,151.849,233.365,151.849z"/>
			
				<path style="fill:#ffffff;stroke:#9f57b3;stroke-width:2.7269;stroke-linecap:round;stroke-linejoin:round;stroke-miterlimit:10;" d="     M233.365,145.797L233.365,145.797c-20.361,0-37.019-16.658-37.019-37.019l0,0c0-20.361,16.659-37.019,37.019-37.019h0     c20.36,0,37.019,16.659,37.019,37.019l0,0C270.384,129.138,253.725,145.797,233.365,145.797z"/>
			<path style="fill:#1c77de;" d="M233.365,120.94L233.365,120.94c-6.689,0-12.162-5.473-12.162-12.162l0,0     c0-6.689,5.473-12.162,12.162-12.162l0,0c6.689,0,12.162,5.473,12.162,12.162l0,0C245.527,115.467,240.054,120.94,233.365,120.94     z"/>
			
				<line style="fill:#ffffff;stroke:#2620bf;stroke-width:1.0632;stroke-linecap:round;stroke-linejoin:round;stroke-miterlimit:10;" x1="228.846" y1="109.575" x2="238.415" y2="109.575"/>
		</g>
		<g>
			<path style="fill:#ffffff;stroke:#dfc7d8;stroke-miterlimit:10;" d="M665.79,412.3c0,2.582-2.093,4.674-4.674,4.674     c-2.582,0-4.674-2.093-4.674-4.674s2.093-4.674,4.674-4.674C663.698,407.625,665.79,409.718,665.79,412.3z"/>
			<path style="fill:#ffffff;stroke:#dfc7d8;stroke-miterlimit:10;" d="M687.085,412.3c0,2.582-2.093,4.674-4.674,4.674     c-2.582,0-4.674-2.093-4.674-4.674s2.093-4.674,4.674-4.674C684.992,407.625,687.085,409.718,687.085,412.3z"/>
			<path style="fill:#ffffff;stroke:#dfc7d8;stroke-miterlimit:10;" d="M708.379,412.3c0,2.582-2.093,4.674-4.674,4.674     c-2.581,0-4.674-2.093-4.674-4.674s2.093-4.674,4.674-4.674C706.286,407.625,708.379,409.718,708.379,412.3z"/>
			<path style="fill:#ffffff;stroke:#dfc7d8;stroke-miterlimit:10;" d="M729.673,412.3c0,2.582-2.093,4.674-4.674,4.674     s-4.674-2.093-4.674-4.674s2.093-4.674,4.674-4.674S729.673,409.718,729.673,412.3z"/>
			<path style="fill:#ffffff;stroke:#dfc7d8;stroke-miterlimit:10;" d="M665.531,433.334c0,2.582-2.093,4.674-4.674,4.674     c-2.581,0-4.674-2.093-4.674-4.674c0-2.582,2.093-4.674,4.674-4.674C663.438,428.66,665.531,430.753,665.531,433.334z"/>
			<path style="fill:#ffffff;stroke:#dfc7d8;stroke-miterlimit:10;" d="M686.825,433.334c0,2.582-2.093,4.674-4.674,4.674     c-2.582,0-4.674-2.093-4.674-4.674c0-2.582,2.093-4.674,4.674-4.674C684.732,428.66,686.825,430.753,686.825,433.334z"/>
			<path style="fill:#ffffff;stroke:#dfc7d8;stroke-miterlimit:10;" d="M708.119,433.334c0,2.582-2.093,4.674-4.674,4.674     c-2.582,0-4.674-2.093-4.674-4.674c0-2.582,2.093-4.674,4.674-4.674C706.027,428.66,708.119,430.753,708.119,433.334z"/>
			<path style="fill:#ffffff;stroke:#dfc7d8;stroke-miterlimit:10;" d="M729.414,433.334c0,2.582-2.093,4.674-4.674,4.674     c-2.581,0-4.674-2.093-4.674-4.674c0-2.582,2.093-4.674,4.674-4.674C727.321,428.66,729.414,430.753,729.414,433.334z"/>
			<path style="fill:#ffffff;stroke:#dfc7d8;stroke-miterlimit:10;" d="M665.271,454.369c0,2.582-2.093,4.674-4.674,4.674     s-4.674-2.093-4.674-4.674s2.093-4.674,4.674-4.674S665.271,451.787,665.271,454.369z"/>
			<circle style="fill:#ffffff;stroke:#dfc7d8;stroke-miterlimit:10;" cx="681.891" cy="454.369" r="4.674"/>
			<path style="fill:#1c77de;" d="M707.86,454.369c0,2.582-2.093,4.674-4.674,4.674c-2.582,0-4.674-2.093-4.674-4.674     s2.093-4.674,4.674-4.674C705.767,449.694,707.86,451.787,707.86,454.369z"/>
			<path style="fill:#ffffff;stroke:#dfc7d8;stroke-miterlimit:10;" d="M729.154,454.369c0,2.582-2.093,4.674-4.674,4.674     c-2.582,0-4.674-2.093-4.674-4.674s2.093-4.674,4.674-4.674C727.061,449.694,729.154,451.787,729.154,454.369z"/>
			<path style="fill:#ffffff;stroke:#dfc7d8;stroke-miterlimit:10;" d="M665.011,475.403c0,2.582-2.093,4.674-4.674,4.674     c-2.581,0-4.674-2.093-4.674-4.674c0-2.582,2.093-4.674,4.674-4.674C662.919,470.729,665.011,472.822,665.011,475.403z"/>
			<path style="fill:#ffffff;stroke:#dfc7d8;stroke-miterlimit:10;" d="M686.306,475.403c0,2.582-2.093,4.674-4.674,4.674     c-2.582,0-4.674-2.093-4.674-4.674c0-2.582,2.093-4.674,4.674-4.674C684.213,470.729,686.306,472.822,686.306,475.403z"/>
			<path style="fill:#1c77de;" d="M707.6,475.403c0,2.582-2.093,4.674-4.674,4.674c-2.582,0-4.674-2.093-4.674-4.674     c0-2.582,2.093-4.674,4.674-4.674C705.507,470.729,707.6,472.822,707.6,475.403z"/>
			<path style="fill:#ffffff;stroke:#dfc7d8;stroke-miterlimit:10;" d="M728.894,475.403c0,2.582-2.093,4.674-4.674,4.674     c-2.582,0-4.674-2.093-4.674-4.674c0-2.582,2.093-4.674,4.674-4.674C726.802,470.729,728.894,472.822,728.894,475.403z"/>
		</g>
		<g>
			<path style="fill:#9f57b3;" d="M636.67,434.647c-6.972,26.163-30.821,45.431-59.178,45.431     c-33.831,0-61.249-27.418-61.249-61.249c0-33.831,27.419-61.249,61.249-61.249c26.98,0,49.892,17.452,58.043,41.68     c-20.961,6.654-58.043,19.57-58.043,19.57L636.67,434.647z"/>
			<g>
				<g>
					
						<path style="fill:#ffffff;stroke:#dfc7d8;stroke-width:1.4583;stroke-linecap:round;stroke-linejoin:round;stroke-miterlimit:10;" d="       M578.228,372.743c0,0,0,90.888,0,92.799"/>
					
						<path style="fill:#ffffff;stroke:#dfc7d8;stroke-width:1.4583;stroke-linecap:round;stroke-linejoin:round;stroke-miterlimit:10;" d="       M578.175,419.143c0,0-45.394,0-46.348,0"/>
				</g>
				<g>
					
						<path style="fill:#ffffff;stroke:#dfc7d8;stroke-width:1.4583;stroke-linecap:round;stroke-linejoin:round;stroke-miterlimit:10;" d="       M611.037,386.333c0,0-64.268,64.267-65.619,65.618"/>
					
						<path style="fill:#ffffff;stroke:#dfc7d8;stroke-width:1.4583;stroke-linecap:round;stroke-linejoin:round;stroke-miterlimit:10;" d="       M611.037,451.952c0,0-64.268-64.268-65.619-65.618"/>
				</g>
				<g>
					
						<path style="fill:#ffffff;stroke:#dfc7d8;stroke-width:1.4583;stroke-linecap:round;stroke-linejoin:round;stroke-miterlimit:10;" d="       M621.584,402.617c0,0-84.928,32.371-86.714,33.051"/>
					
						<path style="fill:#ffffff;stroke:#dfc7d8;stroke-width:1.4583;stroke-linecap:round;stroke-linejoin:round;stroke-miterlimit:10;" d="       M594.753,462.499c0,0-32.37-84.928-33.051-86.714"/>
				</g>
				<g>
					
						<path style="fill:#ffffff;stroke:#dfc7d8;stroke-width:1.4583;stroke-linecap:round;stroke-linejoin:round;stroke-miterlimit:10;" d="       M620.571,438.115c0,0-82.943-37.164-84.686-37.945"/>
					
						<path style="fill:#ffffff;stroke:#dfc7d8;stroke-width:1.4583;stroke-linecap:round;stroke-linejoin:round;stroke-miterlimit:10;" d="       M559.255,461.486c0,0,37.164-82.943,37.945-84.686"/>
				</g>
			</g>
		</g>
		<g>
			<path style="fill:#2620bf;" d="M412.216,445.311c5.335,20.022,23.587,34.766,45.287,34.766c25.89,0,46.872-20.982,46.872-46.872     c0-25.89-20.983-46.872-46.872-46.872c-20.647,0-38.181,13.356-44.419,31.896c16.041,5.092,44.419,14.976,44.419,14.976     L412.216,445.311z"/>
			<g>
				<g>
					
						<path style="fill:#ffffff;stroke:#dfc7d8;stroke-width:1.116;stroke-linecap:round;stroke-linejoin:round;stroke-miterlimit:10;" d="       M456.94,397.938c0,0,0,69.553,0,71.016"/>
					
						<path style="fill:#ffffff;stroke:#dfc7d8;stroke-width:1.116;stroke-linecap:round;stroke-linejoin:round;stroke-miterlimit:10;" d="       M456.981,433.447c0,0,34.738,0,35.469,0"/>
				</g>
				<g>
					
						<path style="fill:#ffffff;stroke:#dfc7d8;stroke-width:1.116;stroke-linecap:round;stroke-linejoin:round;stroke-miterlimit:10;" d="       M431.832,408.338c0,0,49.182,49.182,50.216,50.216"/>
					
						<path style="fill:#ffffff;stroke:#dfc7d8;stroke-width:1.116;stroke-linecap:round;stroke-linejoin:round;stroke-miterlimit:10;" d="       M431.832,458.554c0,0,49.182-49.182,50.216-50.216"/>
				</g>
				<g>
					
						<path style="fill:#ffffff;stroke:#dfc7d8;stroke-width:1.116;stroke-linecap:round;stroke-linejoin:round;stroke-miterlimit:10;" d="       M423.761,420.8c0,0,64.993,24.772,66.359,25.293"/>
					
						<path style="fill:#ffffff;stroke:#dfc7d8;stroke-width:1.116;stroke-linecap:round;stroke-linejoin:round;stroke-miterlimit:10;" d="       M444.294,466.625c0,0,24.772-64.993,25.293-66.359"/>
				</g>
				<g>
					
						<path style="fill:#ffffff;stroke:#dfc7d8;stroke-width:1.116;stroke-linecap:round;stroke-linejoin:round;stroke-miterlimit:10;" d="       M424.536,447.965c0,0,63.473-28.44,64.808-29.038"/>
					
						<path style="fill:#ffffff;stroke:#dfc7d8;stroke-width:1.116;stroke-linecap:round;stroke-linejoin:round;stroke-miterlimit:10;" d="       M471.459,465.85c0,0-28.44-63.473-29.038-64.807"/>
				</g>
			</g>
		</g>
		<circle style="fill:#0b0925;" cx="150.678" cy="269.699" r="51.986"/>
		<circle style="fill:#0b0925;" cx="150.678" cy="359.743" r="17.917"/>
		<rect x="652.11" y="257.699" style="fill:#0b0925;" width="68.392" height="68.392"/>
		<path style="fill:#1c77de;" d="M197.384,361.2c18.621,0,33.716,15.102,33.716,33.73c0,18.628-15.095,33.73-33.716,33.73V361.2z"/>
		<path style="fill:#2620bf;" d="M231.1,361.2c18.621,0,33.716,15.102,33.716,33.73c0,18.628-15.095,33.73-33.716,33.73V361.2z"/>
		<path style="fill:#9f57b3;" d="M462.851,29.218L462.851,29.218c12.787,11.011,14.24,30.481,3.229,43.268l-48.618,56.46    c-11.011,12.786-30.481,14.24-43.268,3.229l0,0c-12.787-11.011-14.24-30.481-3.229-43.268l48.618-56.46    C430.594,19.66,450.064,18.207,462.851,29.218z"/>
		
			<polyline style="fill:#ffffff;stroke:#dfc7d8;stroke-width:1.7577;stroke-linecap:round;stroke-linejoin:round;stroke-miterlimit:10;" points="    374.194,132.174 462.851,29.218 422.413,112.001   "/>
		
			<polyline style="fill:#ffffff;stroke:#dfc7d8;stroke-width:1.7577;stroke-linecap:round;stroke-linejoin:round;stroke-miterlimit:10;" points="    497.943,0.382 462.851,29.218 393.168,81.035   "/>
		<g>
			
				<line style="fill:#ffffff;stroke:#dfc7d8;stroke-width:2;stroke-linecap:round;stroke-linejoin:round;stroke-miterlimit:10;" x1="687.085" y1="272.549" x2="687.085" y2="308.381"/>
			
				<line style="fill:#ffffff;stroke:#dfc7d8;stroke-width:2;stroke-linecap:round;stroke-linejoin:round;stroke-miterlimit:10;" x1="669.161" y1="290.465" x2="705.008" y2="290.465"/>
			
				<line style="fill:#ffffff;stroke:#dfc7d8;stroke-width:2;stroke-linecap:round;stroke-linejoin:round;stroke-miterlimit:10;" x1="674.411" y1="277.796" x2="699.759" y2="303.134"/>
			
				<line style="fill:#ffffff;stroke:#dfc7d8;stroke-width:2;stroke-linecap:round;stroke-linejoin:round;stroke-miterlimit:10;" x1="674.411" y1="303.134" x2="699.759" y2="277.796"/>
		</g>
		<g>
			
				<line style="fill:#ffffff;stroke:#dfc7d8;stroke-width:2;stroke-linecap:round;stroke-linejoin:round;stroke-miterlimit:10;" x1="34.259" y1="191.027" x2="34.259" y2="226.859"/>
			
				<line style="fill:#ffffff;stroke:#dfc7d8;stroke-width:2;stroke-linecap:round;stroke-linejoin:round;stroke-miterlimit:10;" x1="16.336" y1="208.943" x2="52.183" y2="208.943"/>
			
				<line style="fill:#ffffff;stroke:#dfc7d8;stroke-width:2;stroke-linecap:round;stroke-linejoin:round;stroke-miterlimit:10;" x1="21.585" y1="196.274" x2="46.933" y2="221.612"/>
			
				<line style="fill:#ffffff;stroke:#dfc7d8;stroke-width:2;stroke-linecap:round;stroke-linejoin:round;stroke-miterlimit:10;" x1="21.585" y1="221.612" x2="46.933" y2="196.274"/>
		</g>
		<g>
			<g>
				<path style="fill:#ffffff;" d="M104.198,482.577c-3.864,0-6.996-3.132-6.996-6.996c0-3.864,3.132-6.996,6.996-6.996      s6.996,3.132,6.996,6.996C111.194,479.444,108.062,482.577,104.198,482.577z"/>
				<path style="fill:#ffffff;" d="M77.791,482.577c-3.864,0-6.996-3.132-6.996-6.996c0-3.864,3.132-6.996,6.996-6.996      c3.864,0,6.996,3.132,6.996,6.996C84.787,479.444,81.654,482.577,77.791,482.577z"/>
				
					<ellipse transform="matrix(0.678 -0.7351 0.7351 0.678 -332.8697 190.0967)" style="fill:#ffffff;" cx="50.525" cy="474.957" rx="6.996" ry="6.996"/>
			</g>
			
				<path style="fill:#ffffff;stroke:#ffffff;stroke-width:2.1525;stroke-linecap:round;stroke-linejoin:round;stroke-miterlimit:10;" d="     M128.816,476.041v-0.92c0-2.988,2.445-5.433,5.433-5.433h39.223c2.988,0,5.433,2.445,5.433,5.433v0.92     c0,2.988-2.445,5.433-5.433,5.433h-39.223C131.26,481.474,128.816,479.029,128.816,476.041z"/>
			
				<ellipse transform="matrix(0.1344 -0.9909 0.9909 0.1344 -301.0385 606.5283)" style="fill:#ffffff;stroke:#ffffff;stroke-width:2.1525;stroke-linecap:round;stroke-linejoin:round;stroke-miterlimit:10;" cx="196.662" cy="475.581" rx="7.265" ry="7.264"/>
		</g>
		<g>
			<g>
				<path style="fill:#ffffff;" d="M720.345,37.015c-3.864,0-6.996-3.132-6.996-6.996s3.132-6.996,6.996-6.996      c3.864,0,6.996,3.132,6.996,6.996S724.209,37.015,720.345,37.015z"/>
				<path style="fill:#dfc7d8;" d="M693.938,37.015c-3.864,0-6.996-3.132-6.996-6.996s3.132-6.996,6.996-6.996      c3.864,0,6.996,3.132,6.996,6.996S697.802,37.015,693.938,37.015z"/>
				<path style="fill:#ffffff;" d="M666.673,36.391c-3.864,0-6.996-3.132-6.996-6.996c0-3.864,3.132-6.996,6.996-6.996      s6.996,3.132,6.996,6.996C673.668,33.259,670.536,36.391,666.673,36.391z"/>
			</g>
		</g>
		<path style="fill:#0b0925;" d="M330.13,15.088l5.027,14.932c1.319,3.916,4.394,6.99,8.311,8.308l14.938,5.025    c1.195,0.402,1.195,2.092,0,2.494l-14.938,5.025c-3.917,1.318-6.992,4.392-8.311,8.308l-5.027,14.932    c-0.402,1.195-2.093,1.195-2.495,0l-5.027-14.932c-1.318-3.916-4.393-6.99-8.311-8.308l-14.937-5.025    c-1.195-0.402-1.195-2.092,0-2.494l14.937-5.025c3.918-1.318,6.993-4.392,8.311-8.308l5.027-14.932    C328.037,13.893,329.727,13.893,330.13,15.088z"/>
		<path style="fill:#0b0925;" d="M513.677,29.678l2.542,7.55c0.667,1.98,2.221,3.534,4.202,4.2l7.553,2.541    c0.604,0.203,0.604,1.058,0,1.261l-7.553,2.541c-1.981,0.666-3.536,2.221-4.202,4.201l-2.542,7.549    c-0.203,0.604-1.058,0.604-1.262,0l-2.542-7.549c-0.667-1.98-2.221-3.534-4.202-4.201l-7.552-2.541    c-0.604-0.203-0.604-1.058,0-1.261l7.552-2.541c1.981-0.666,3.536-2.221,4.202-4.2l2.542-7.55    C512.618,29.074,513.473,29.074,513.677,29.678z"/>
		<path style="fill:#0b0925;" d="M271.015,450.928l2.542,7.55c0.667,1.98,2.221,3.534,4.202,4.2l7.553,2.541    c0.604,0.203,0.604,1.058,0,1.261l-7.553,2.541c-1.981,0.666-3.536,2.22-4.202,4.2l-2.542,7.55c-0.203,0.604-1.058,0.604-1.262,0    l-2.542-7.55c-0.667-1.98-2.221-3.534-4.202-4.2l-7.553-2.541c-0.604-0.203-0.604-1.058,0-1.261l7.553-2.541    c1.981-0.666,3.535-2.221,4.202-4.2l2.542-7.55C269.956,450.324,270.811,450.324,271.015,450.928z"/>
		<path style="fill:#dfc7d8;" d="M750,380.173c-24.437,0-44.247-19.818-44.247-44.264c0-24.447,19.81-44.264,44.247-44.264V380.173z    "/>
		<g>
			
				<rect x="90.012" y="24.458" transform="matrix(-1 -1.224647e-16 1.224647e-16 -1 197.3841 54.7744)" style="fill:#9f57b3;" width="17.361" height="5.858"/>
			
				<rect x="83.163" y="13.328" transform="matrix(-1 -1.224647e-16 1.224647e-16 -1 197.3841 32.5148)" style="fill:#1c77de;" width="31.059" height="5.858"/>
		</g>
	</g>
</g>
</svg>